<svg width="22" height="22" viewBox="0 0 22 22" fill="none" xmlns="http://www.w3.org/2000/svg">
<path d="M15.3959 6.75703C15.4889 6.84991 15.5627 6.96019 15.613 7.08159C15.6633 7.20299 15.6892 7.33312 15.6892 7.46453C15.6892 7.59595 15.6633 7.72608 15.613 7.84747C15.5627 7.96887 15.4889 8.07916 15.3959 8.17203L12.4139 11.153L15.0899 13.828C15.2776 14.0157 15.383 14.2702 15.383 14.5355C15.383 14.8009 15.2776 15.0554 15.0899 15.243C14.9023 15.4307 14.6478 15.5361 14.3824 15.5361C14.1171 15.5361 13.8626 15.4307 13.6749 15.243L10.9999 12.567L8.32494 15.243C8.1373 15.4307 7.88281 15.5361 7.61745 15.5361C7.35208 15.5361 7.09759 15.4307 6.90994 15.243C6.7223 15.0554 6.61689 14.8009 6.61689 14.5355C6.61689 14.2702 6.7223 14.0157 6.90994 13.828L9.58595 11.153L6.60394 8.17203C6.51103 8.07906 6.43735 7.96869 6.38709 7.84724C6.33683 7.72578 6.31099 7.59562 6.31104 7.46418C6.31108 7.33274 6.33702 7.20259 6.38736 7.08117C6.4377 6.95976 6.51147 6.84944 6.60444 6.75653C6.69742 6.66362 6.80779 6.58994 6.92924 6.53968C7.05069 6.48942 7.18086 6.46358 7.3123 6.46362C7.44374 6.46367 7.57388 6.48961 7.6953 6.53995C7.81672 6.59029 7.92704 6.66406 8.01995 6.75703L10.9999 9.74003L13.9809 6.75803C14.0738 6.66506 14.1841 6.5913 14.3055 6.54097C14.4269 6.49065 14.557 6.46475 14.6884 6.46475C14.8199 6.46475 14.95 6.49065 15.0714 6.54097C15.1928 6.5913 15.3031 6.66406 15.3959 6.75703Z" fill="black"/>
<path fill-rule="evenodd" clip-rule="evenodd" d="M3 0C2.20435 0 1.44129 0.31607 0.87868 0.87868C0.31607 1.44129 0 2.20435 0 3V19C0 19.7956 0.31607 20.5587 0.87868 21.1213C1.44129 21.6839 2.20435 22 3 22H19C19.7956 22 20.5587 21.6839 21.1213 21.1213C21.6839 20.5587 22 19.7956 22 19V3C22 2.20435 21.6839 1.44129 21.1213 0.87868C20.5587 0.31607 19.7956 0 19 0H3ZM19 2H3C2.73478 2 2.48043 2.10536 2.29289 2.29289C2.10536 2.48043 2 2.73478 2 3V19C2 19.2652 2.10536 19.5196 2.29289 19.7071C2.48043 19.8946 2.73478 20 3 20H19C19.2652 20 19.5196 19.8946 19.7071 19.7071C19.8946 19.5196 20 19.2652 20 19V3C20 2.73478 19.8946 2.48043 19.7071 2.29289C19.5196 2.10536 19.2652 2 19 2Z" fill="black"/>
</svg>
